<svg viewBox="0 0 64 64" xmlns="http://www.w3.org/2000/svg"><circle cx="36" cy="29" r="23" fill="#f2f2f2" class="fill-eaeaea"></circle><circle cx="45" cy="12" r="1" fill="#4c241d" class="fill-4c241d"></circle><path d="m37 5 3 3M40 5l-3 3" stroke="#4c241d" stroke-linecap="round" stroke-linejoin="round" stroke-width="2px" fill="none" class="stroke-4c241d"></path><circle cx="24" cy="11" r="2" stroke="#4c241d" stroke-linecap="round" stroke-linejoin="round" stroke-width="2px" fill="none" class="stroke-4c241d"></circle><path d="M31.354 23.224a2.579 2.579 0 0 0-1.893 2.334c0 .962 1.591 1.227 1.893 2.333a2.645 2.645 0 0 1-.947 2.334M35.354 17.224a2.579 2.579 0 0 0-1.893 2.334c0 .962 1.591 1.227 1.893 2.333a2.645 2.645 0 0 1-.947 2.334" stroke="#4c241d" stroke-linecap="round" stroke-linejoin="round" stroke-width="2px" fill="none" class="stroke-4c241d"></path><path d="M48 40.733v1.275a6.772 6.772 0 0 1-7.204 6.758l-24.778-1.678C13.002 46.895 9 42.61 9 41.37v0c0-1.24 4.002-5.525 7.018-5.718l24.779-1.678A6.772 6.772 0 0 1 48 40.733Z" fill="#f2b705" stroke="#4c241d" stroke-linecap="round" stroke-linejoin="round" stroke-width="2px" class="fill-ffce56 stroke-4c241d"></path><path d="M55.08 42.479S51.57 46.285 48 42s1-4-8.63-9.519c-3.337-1.912 19.994 1.429 15.71 9.998Z" fill="#4f7302" stroke="#4c241d" stroke-linecap="round" stroke-linejoin="round" stroke-width="2px" class="fill-77a052 stroke-4c241d"></path><path d="M55.08 40.521a7.556 7.556 0 0 0-8.57 2.143c-3.57 4.284-3.57 6.426-7.14 7.855s19.994-1.429 15.71-9.998Z" fill="#4f7302" stroke="#4c241d" stroke-linecap="round" stroke-linejoin="round" stroke-width="2px" class="fill-77a052 stroke-4c241d"></path><path d="M52 38v6.893a2.074 2.074 0 0 0 1.664 2.08A2.001 2.001 0 0 0 56 45v-1h.53A2.47 2.47 0 0 0 59 41.53v-.06A2.47 2.47 0 0 0 56.53 39H56v-.893a2.074 2.074 0 0 0-1.664-2.08A2.001 2.001 0 0 0 52 38Z" fill="#a9bf04" stroke="#4c241d" stroke-linecap="round" stroke-linejoin="round" stroke-width="2px" class="fill-a9ba5a stroke-4c241d"></path><path d="m51.917 56 2-7h6a3 3 0 0 0 3-3h-61a3 3 0 0 0 3 3h6l2 7Z" fill="#cdb294" stroke="#4c241d" stroke-linecap="round" stroke-linejoin="round" stroke-width="2px" class="fill-ffded5 stroke-4c241d"></path><path d="M2 56h60" stroke="#4c241d" stroke-linecap="round" stroke-linejoin="round" stroke-width="2px" fill="none" class="stroke-4c241d"></path><circle cx="16.081" cy="42.782" r="1.132" fill="#4c241d" class="fill-4c241d"></circle><circle cx="18.081" cy="38.782" r="1.132" fill="#4c241d" class="fill-4c241d"></circle><circle cx="23.081" cy="42.782" r="1.132" fill="#4c241d" class="fill-4c241d"></circle><circle cx="20.081" cy="41.782" r="1.132" fill="#4c241d" class="fill-4c241d"></circle><circle cx="22.081" cy="38.782" r="1.132" fill="#4c241d" class="fill-4c241d"></circle><circle cx="25.081" cy="39.782" r="1.132" fill="#4c241d" class="fill-4c241d"></circle><circle cx="28.081" cy="37.782" r="1.132" fill="#4c241d" class="fill-4c241d"></circle><circle cx="32.081" cy="37.782" r="1.132" fill="#4c241d" class="fill-4c241d"></circle><circle cx="29.081" cy="40.782" r="1.132" fill="#4c241d" class="fill-4c241d"></circle><circle cx="13.082" cy="40.782" r="1.132" fill="#4c241d" class="fill-4c241d"></circle></svg>